<svg width="50" height="50" viewBox="0 0 50 50" fill="none" xmlns="http://www.w3.org/2000/svg">
<path d="M36.7249 34.7056H24.786C24.4793 34.7056 24.2304 34.4572 24.2304 34.15C24.2304 33.8428 24.4793 33.5944 24.786 33.5944H36.1693V14.1111H11.2571V16.065C11.2571 16.3717 11.0082 16.6206 10.7016 16.6206C10.3949 16.6206 10.146 16.3717 10.146 16.065V13.5556C10.146 13.2489 10.3949 13 10.7016 13H36.7249C37.0321 13 37.2804 13.2489 37.2804 13.5556V34.15C37.2804 34.4567 37.0321 34.7056 36.7249 34.7056Z" fill="black"/>
<path d="M15.3793 34.7056H10.7016C10.3949 34.7056 10.146 34.4573 10.146 34.15V31.3517C10.146 31.0445 10.3949 30.7961 10.7016 30.7961C11.0082 30.7961 11.2571 31.0445 11.2571 31.3517V33.5945H15.3793C15.686 33.5945 15.9349 33.8428 15.9349 34.15C15.9349 34.4573 15.686 34.7056 15.3793 34.7056Z" fill="black"/>
<path d="M49.4444 34.7054C49.1389 34.7054 48.8911 34.4593 48.8889 34.1538L48.8361 26.2999L43.1405 20.3216H37.2805V33.5943H40.4389C40.7461 33.5943 40.9944 33.8427 40.9944 34.1499C40.9944 34.4571 40.7461 34.7054 40.4389 34.7054H36.725C36.4178 34.7054 36.1694 34.4571 36.1694 34.1499V19.766C36.1694 19.4593 36.4178 19.2104 36.725 19.2104H43.3789C43.5305 19.2104 43.6761 19.2727 43.7811 19.3827L49.7922 25.6927C49.89 25.7954 49.9444 25.931 49.9455 26.0721L50 34.146C50.0022 34.4532 49.755 34.7032 49.4483 34.7054C49.4472 34.7054 49.4455 34.7054 49.4444 34.7054Z" fill="black"/>
<path d="M44.94 26.631H40.2372C39.93 26.631 39.6816 26.3827 39.6816 26.0754V19.766C39.6816 19.4593 39.93 19.2104 40.2372 19.2104C40.5444 19.2104 40.7928 19.4593 40.7928 19.766V25.5204H44.94C45.2472 25.5204 45.4955 25.7693 45.4955 26.076C45.4955 26.3827 45.2466 26.631 44.94 26.631Z" fill="black"/>
<path d="M18.3195 37.645C16.3923 37.645 14.824 36.0773 14.824 34.15C14.824 32.2228 16.3918 30.655 18.3195 30.655C20.2468 30.655 21.8145 32.2228 21.8145 34.15C21.8145 36.0773 20.2462 37.645 18.3195 37.645ZM18.3195 31.7661C17.0051 31.7661 15.9351 32.8356 15.9351 34.15C15.9351 35.4645 17.0045 36.5339 18.3195 36.5339C19.6345 36.5339 20.7034 35.4645 20.7034 34.15C20.7034 32.8356 19.634 31.7661 18.3195 31.7661Z" fill="black"/>
<path d="M43.3789 37.645C41.4511 37.645 39.8833 36.0773 39.8833 34.15C39.8833 32.2228 41.4511 30.655 43.3789 30.655C45.3061 30.655 46.8739 32.2228 46.8739 34.15C46.8739 36.0773 45.3061 37.645 43.3789 37.645ZM43.3789 31.7661C42.0644 31.7661 40.9944 32.8356 40.9944 34.15C40.9944 35.4645 42.0644 36.5339 43.3789 36.5339C44.6933 36.5339 45.7627 35.4645 45.7627 34.15C45.7627 32.8356 44.6933 31.7661 43.3789 31.7661Z" fill="black"/>
<path d="M23.7133 24.4077H0.555556C0.248889 24.4077 0 24.1589 0 23.8522C0 23.5455 0.248889 23.2966 0.555556 23.2966H23.7133C24.02 23.2966 24.2689 23.5455 24.2689 23.8522C24.2689 24.1589 24.02 24.4077 23.7133 24.4077Z" fill="black"/>
<path d="M23.7133 19.7044H6.43495C6.12828 19.7044 5.87939 19.4555 5.87939 19.1488C5.87939 18.8422 6.12828 18.5933 6.43495 18.5933H23.7138C24.0205 18.5933 24.2694 18.8422 24.2694 19.1488C24.2694 19.4555 24.0199 19.7044 23.7133 19.7044Z" fill="black"/>
<path d="M23.7133 29.1111H6.43495C6.12828 29.1111 5.87939 28.8628 5.87939 28.5556C5.87939 28.2483 6.12828 28 6.43495 28H23.7138C24.0205 28 24.2694 28.2483 24.2694 28.5556C24.2694 28.8628 24.0199 29.1111 23.7133 29.1111Z" fill="black"/>
</svg>
