<svg width="20" height="20" viewBox="0 0 20 20" fill="none" xmlns="http://www.w3.org/2000/svg">
<path d="M18.5714 10C18.5714 14.7339 14.7339 18.5714 10 18.5714C5.26615 18.5714 1.42859 14.7339 1.42859 10C1.42859 5.26615 5.26615 1.42859 10 1.42859C14.7339 1.42859 18.5714 5.26615 18.5714 10Z" fill="#FFD362"/>
<path fill-rule="evenodd" clip-rule="evenodd" d="M10 1.85714C5.50282 1.85714 1.85714 5.50282 1.85714 10C1.85714 14.4972 5.50282 18.1429 10 18.1429C14.4972 18.1429 18.1429 14.4972 18.1429 10C18.1429 5.50282 14.4972 1.85714 10 1.85714ZM1 10C1 5.02944 5.02944 1 10 1C14.9706 1 19 5.02944 19 10C19 14.9706 14.9706 19 10 19C5.02944 19 1 14.9706 1 10Z" fill="black"/>
<circle cx="10" cy="9.99997" r="6.85714" fill="#FFB82E"/>
<path d="M12.7874 6.57141H8.04568V14.2857H9.81483V11.272H12.52V9.59541H9.81483V8.25827H12.7874V6.57141Z" fill="#985507"/>
</svg>
