<svg width="111" height="647" viewBox="0 0 111 647" fill="none" xmlns="http://www.w3.org/2000/svg">
<path d="M3.31154 607.674C3.31154 599.764 4.75196 592.781 7.63282 586.727C10.5137 580.672 14.5908 575.984 19.8643 572.664C25.0889 569.295 31.1436 567.61 38.0283 567.61C45.2549 567.61 51.6026 569.271 57.0713 572.591C62.5401 575.911 66.7881 580.599 69.8154 586.653C72.8428 592.708 74.3565 599.69 74.3565 607.601V624.08H109V646.199H3.31154L3.31154 607.674ZM55.46 608.333C55.46 604.671 54.7764 601.424 53.4092 598.592C51.9932 595.76 50.0645 593.587 47.6231 592.073C45.1817 590.511 42.3984 589.729 39.2734 589.729C35.9043 589.729 32.9258 590.535 30.3379 592.146C27.75 593.709 25.7481 595.931 24.332 598.812C22.916 601.692 22.208 605.013 22.208 608.772L22.208 623.714H55.46V608.333Z" fill="black"/>
<path d="M109 489.754L71.4268 512.093V528.572H109V550.691H3.31153L3.31153 508.797C3.31153 500.545 4.6543 493.416 7.33985 487.41C9.97657 481.404 13.8096 476.79 18.8389 473.567C23.8193 470.345 29.7275 468.733 36.5635 468.733C44.1318 468.733 50.626 470.516 56.0459 474.08C61.417 477.645 65.4209 482.723 68.0576 489.314L109 463.533V489.754ZM22.208 528.572H52.5303V509.456C52.5303 503.694 51.2363 499.153 48.6484 495.833C46.0117 492.513 42.3984 490.853 37.8086 490.853C32.9746 490.853 29.166 492.562 26.3828 495.979C23.5996 499.349 22.208 503.987 22.208 509.896L22.208 528.572Z" fill="black"/>
<path d="M64.9815 425.301H90.1035L90.1035 376.668H109L109 447.42H3.31153L3.45801 378.426H22.2813L22.2813 425.301H46.085V382.967H64.9814L64.9815 425.301Z" fill="black"/>
<path d="M110.831 318.733C110.831 327.083 109.439 335.066 106.656 342.684C103.873 350.301 100.211 356.746 95.6699 362.02L78.5312 353.743C82.0957 348.519 85.0986 342.854 87.54 336.751C89.9814 330.647 91.2021 324.764 91.2021 319.1C91.2021 313.582 90.1768 309.407 88.126 306.575C86.0752 303.743 83.0479 302.327 79.0439 302.327C76.0654 302.327 73.3555 304.158 70.9141 307.82C68.4238 311.482 66.2266 316.902 64.3223 324.08C61.2461 335.555 56.8516 344.246 51.1387 350.154C45.4258 356.062 38.541 359.017 30.4844 359.017C24.332 359.017 19.0098 357.747 14.5176 355.208C10.0254 352.62 6.58301 348.812 4.19043 343.782C1.74902 338.753 0.528321 332.601 0.52832 325.325C0.52832 324.397 0.577148 322.859 0.674804 320.711C1.45605 308.846 4.36133 297.933 9.39062 287.972L28.2139 291.927C23.7705 301.058 21.1338 310.066 20.3037 318.953C20.2061 320.516 20.1572 321.614 20.1572 322.249C20.1572 326.937 21.1094 330.55 23.0137 333.089C24.918 335.628 27.4082 336.897 30.4844 336.897C33.4141 336.897 36.1729 334.822 38.7607 330.672C41.3486 326.521 43.6924 320.418 45.792 312.361C48.5264 301.814 52.7256 293.831 58.3896 288.411C64.0537 282.942 71.0117 280.208 79.2637 280.208C85.709 280.208 91.2998 281.673 96.0361 284.603C100.772 287.532 104.435 291.878 107.022 297.64C109.562 303.401 110.831 310.433 110.831 318.733Z" fill="black"/>
<path d="M109 169.319V193.782L86.8809 202.645L86.8809 243.147L109 252.01V275.74L3.31152 230.696L3.31152 215.462L109 169.319ZM36.3437 223.006L69.0098 236.043V209.749L36.3437 222.786V223.006Z" fill="black"/>
<path d="M0.601554 134.676H90.1035V84.7979H109V156.795H0.601555L0.601554 134.676Z" fill="black"/>
<path d="M64.9814 48.6895L90.1035 48.6895V0.0566415L109 0.0566406L109 70.8086L3.31151 70.8086L3.45799 1.81446L22.2812 1.81446L22.2812 48.6895H46.0849L46.0849 6.35547L64.9814 6.35547V48.6895Z" fill="black"/>
</svg>
