<svg width="53" height="394" viewBox="0 0 53 394" fill="none" xmlns="http://www.w3.org/2000/svg">
<path d="M2.00001 11.1074L2.00001 0.785156L51.3213 0.785158V33.3584L42.5029 33.3584V11.1074L31.1553 11.1074L31.1553 31.2051L22.3369 31.2051L22.3369 11.1074L2.00001 11.1074Z" fill="#F6F7FB"/>
<path d="M0.735362 64.2227C0.735362 59.2096 1.81772 54.7777 3.98243 50.9268C6.14715 47.0986 9.18914 44.125 13.1084 42.0059C17.0277 39.9095 21.5622 38.8613 26.7119 38.8613C31.8389 38.8613 36.3506 39.9095 40.2471 42.0059C44.1664 44.125 47.197 47.0986 49.3389 50.9268C51.5036 54.7777 52.5859 59.2096 52.5859 64.2227C52.5859 69.2129 51.5036 73.6107 49.3389 77.416C47.197 81.2441 44.1663 84.2064 40.2471 86.3027C36.3506 88.4219 31.8389 89.4814 26.7119 89.4814C21.5622 89.4814 17.0277 88.4333 13.1084 86.3369C9.18914 84.2406 6.14714 81.2783 3.98243 77.4502C1.81772 73.6221 0.735362 69.2129 0.735362 64.2227ZM9.55372 64.2227C9.55372 67.1849 10.2601 69.7939 11.6729 72.0498C13.1084 74.3057 15.125 76.0488 17.7227 77.2793C20.3203 78.5326 23.3167 79.1592 26.7119 79.1592C30.0843 79.1592 33.058 78.5326 35.6328 77.2793C38.2077 76.0488 40.2015 74.3057 41.6143 72.0498C43.0498 69.7939 43.7676 67.1849 43.7676 64.2227C43.7676 61.2376 43.0498 58.6058 41.6143 56.3271C40.2015 54.0713 38.2077 52.3167 35.6328 51.0635C33.058 49.8102 30.0843 49.1836 26.7119 49.1836C23.3167 49.1836 20.3203 49.8102 17.7227 51.0635C15.125 52.3167 13.1084 54.0713 11.6729 56.3271C10.2601 58.6058 9.55372 61.2376 9.55372 64.2227Z" fill="#F6F7FB"/>
<path d="M0.735359 120.346C0.73536 115.333 1.81772 110.901 3.98243 107.05C6.14714 103.222 9.18914 100.248 13.1084 98.1289C17.0277 96.0326 21.5622 94.9844 26.7119 94.9844C31.8389 94.9844 36.3506 96.0326 40.2471 98.1289C44.1663 100.248 47.1969 103.222 49.3389 107.05C51.5036 110.901 52.5859 115.333 52.5859 120.346C52.5859 125.336 51.5036 129.734 49.3389 133.539C47.1969 137.367 44.1663 140.329 40.2471 142.426C36.3506 144.545 31.8389 145.604 26.7119 145.604C21.5622 145.604 17.0277 144.556 13.1084 142.46C9.18913 140.364 6.14714 137.401 3.98243 133.573C1.81772 129.745 0.735359 125.336 0.735359 120.346ZM9.55372 120.346C9.55372 123.308 10.2601 125.917 11.6729 128.173C13.1084 130.429 15.125 132.172 17.7227 133.402C20.3203 134.656 23.3167 135.282 26.7119 135.282C30.0843 135.282 33.0579 134.656 35.6328 133.402C38.2077 132.172 40.2015 130.429 41.6143 128.173C43.0498 125.917 43.7676 123.308 43.7676 120.346C43.7676 117.361 43.0498 114.729 41.6143 112.45C40.2015 110.194 38.2077 108.44 35.6328 107.187C33.0579 105.933 30.0843 105.307 26.7119 105.307C23.3167 105.307 20.3203 105.933 17.7227 107.187C15.125 108.44 13.1084 110.194 11.6729 112.45C10.2601 114.729 9.55372 117.361 9.55372 120.346Z" fill="#F6F7FB"/>
<path d="M51.3213 170.521C51.3213 186.654 43.2321 194.721 27.0537 194.721C10.3512 194.721 2 186.768 2.00001 170.863L2.00001 153.227L51.3213 153.158L51.3213 170.521ZM10.8184 170.863C10.8184 175.466 12.1742 178.873 14.8857 181.083C17.5973 183.293 21.6533 184.398 27.0537 184.398C32.2035 184.398 36.0658 183.271 38.6406 181.015C41.2155 178.759 42.5029 175.261 42.5029 170.521L42.5029 163.48H10.8184V170.863Z" fill="#F6F7FB"/>
<path d="M9.69043 246.195C9.69043 248.839 10.4196 251.265 11.8779 253.476C13.3363 255.709 15.6035 257.862 18.6797 259.936L12.6299 266.293C8.55111 264.014 5.5433 261.246 3.60645 257.987C1.69238 254.752 0.735354 250.821 0.735354 246.195C0.735354 241.296 1.80632 236.955 3.94825 233.173C6.11296 229.39 9.15495 226.439 13.0742 224.32C16.9935 222.201 21.5166 221.107 26.6436 221.039C31.7705 221.107 36.2936 222.201 40.2129 224.32C44.1322 226.439 47.1628 229.39 49.3047 233.173C51.4694 236.955 52.5518 241.296 52.5518 246.195C52.5518 250.775 51.5833 254.695 49.6465 257.953C47.7096 261.212 44.7018 263.992 40.623 266.293L34.5732 259.936C37.6722 257.885 39.9508 255.743 41.4092 253.51C42.8675 251.299 43.5967 248.861 43.5967 246.195C43.5967 243.324 42.8903 240.784 41.4775 238.573C40.0648 236.363 38.071 234.62 35.4961 233.344C32.944 232.09 29.9932 231.441 26.6436 231.396C23.2939 231.441 20.3317 232.09 17.7568 233.344C15.2048 234.597 13.2223 236.329 11.8096 238.539C10.3968 240.772 9.69043 243.324 9.69043 246.195Z" fill="#F6F7FB"/>
<path d="M0.735352 297.123C0.735352 292.11 1.81771 287.678 3.98242 283.827C6.14714 279.999 9.18913 277.025 13.1084 274.906C17.0277 272.81 21.5622 271.762 26.7119 271.762C31.8389 271.762 36.3506 272.81 40.2471 274.906C44.1663 277.025 47.1969 279.999 49.3389 283.827C51.5036 287.678 52.5859 292.11 52.5859 297.123C52.5859 302.113 51.5036 306.511 49.3389 310.316C47.1969 314.145 44.1663 317.107 40.2471 319.203C36.3506 321.322 31.8389 322.382 26.7119 322.382C21.5622 322.382 17.0277 321.334 13.1084 319.237C9.18913 317.141 6.14713 314.179 3.98242 310.351C1.81771 306.522 0.735351 302.113 0.735352 297.123ZM9.55371 297.123C9.55371 300.085 10.2601 302.694 11.6729 304.95C13.1084 307.206 15.125 308.949 17.7227 310.18C20.3203 311.433 23.3167 312.06 26.7119 312.06C30.0843 312.06 33.0579 311.433 35.6328 310.18C38.2077 308.949 40.2015 307.206 41.6143 304.95C43.0498 302.694 43.7676 300.085 43.7676 297.123C43.7676 294.138 43.0498 291.506 41.6143 289.228C40.2015 286.972 38.2077 285.217 35.6328 283.964C33.0579 282.711 30.0843 282.084 26.7119 282.084C23.3167 282.084 20.3203 282.711 17.7227 283.964C15.125 285.217 13.1084 286.972 11.6729 289.228C10.2601 291.506 9.55371 294.138 9.55371 297.123Z" fill="#F6F7FB"/>
<path d="M2 340.258L2 329.936H51.3213V340.258H2Z" fill="#F6F7FB"/>
<path d="M19.4316 383.051H51.3213V393.373H2L2 382.709L33.4795 360.731V360.15H2L2 349.828L51.3213 349.862V360.15L19.4316 382.606V383.051Z" fill="#F6F7FB"/>
</svg>
