<svg fill="none" height="50" viewBox="0 0 135 50" width="135" xmlns="http://www.w3.org/2000/svg"><path d="m0 0h50v50h-50z" fill="#fff"/><path clip-rule="evenodd" d="m36.0924 16.9721c.8704 1.7275 1.3218 3.6342 1.3179 5.5669.0226 2.4443-.6878 4.8397-2.0405 6.8797 0 0-4.6851 5.9509-10.0623 11.368-.1482.1493-.3895.1489-.5372-.0008-5.3429-5.4169-10.0633-11.3672-10.0633-11.3672-1.0845-1.6029-1.7763-3.4368-2.0198-5.3542-.2435-1.9175-.032-3.8651.6176-5.6863.6496-1.8213 1.7191-3.4655 3.1227-4.8004 1.4036-1.335 3.1021-2.3235 4.959-2.8862s3.8205-.6839 5.7329-.3538c1.9125.3301 3.7206 1.1023 5.2789 2.2545 1.5584 1.1522 2.8236 2.6523 3.6941 4.3798zm-11.0924 10.6607c2.7976 0 5.0656-2.268 5.0656-5.0657s-2.268-5.0657-5.0656-5.0657c-2.7977 0-5.0657 2.268-5.0657 5.0657s2.268 5.0657 5.0657 5.0657z" fill="#e5e5e5" fill-rule="evenodd"/><path d="m37.4103 22.539-.5-.001v.0056zm-1.3179-5.5669-.4465.225zm-.7226 12.4466.3929.3092.0126-.016.0113-.0169zm-10.0623 11.368-.3549-.3522zm-.5372-.0008-.356.3511zm-10.0633-11.3672-.4141.2801.0106.0157.0118.0149zm-2.0198-5.3542-.496.063zm.6176-5.6863.4709.1679zm3.1227-4.8004-.3446-.3623zm4.959-2.8862-.145-.4785zm5.7329-.3538.0851-.49267zm5.2789 2.2545-.2972.4021zm5.512 9.9477c.0041-2.0113-.4657-3.9954-1.3714-5.7929l-.893.45c.8351 1.6574 1.2682 3.4867 1.2644 5.3409zm-2.1237 7.155c1.4077-2.1231 2.1472-4.6163 2.1237-7.1607l-1 .0093c.0217 2.3443-.6597 4.6419-1.9572 6.5987zm-10.1243 11.444c2.7008-2.7208 5.2254-5.5732 7.0735-7.7436.9244-1.0856 1.6805-2.0016 2.2057-2.6465.2626-.3225.4675-.5773.607-.7517.0697-.0871.1231-.1542.1591-.1996.018-.0227.0317-.04.0409-.0517.0046-.0058.0081-.0103.0105-.0133.0012-.0015.0021-.0026.0027-.0034.0003-.0004.0005-.0007.0007-.0009.0001-.0001.0002-.0002.0002-.0002.0001-.0001.0001-.0002-.3928-.3094-.3928-.3093-.3928-.3093-.3928-.3093-.0001 0-.0001.0001-.0002.0001-.0001.0002-.0003.0004-.0005.0008-.0006.0006-.0014.0017-.0025.003-.0021.0028-.0054.007-.0099.0126-.0088.0112-.0221.0279-.0397.0502-.0352.0444-.0878.1104-.1566.1965-.1378.1723-.3409.4247-.6015.7448-.5214.6402-1.2727 1.5505-2.1917 2.6297-1.8387 2.1594-4.3453 4.9911-7.0218 7.6874zm-1.248-.002c.3431.3478.9039.3486 1.248.002l-.7097-.7045c.0479-.0482.126-.0481.1737.0002zm-9.7073-11.7183c-.3917.3107-.3917.3107-.3916.3108 0 .0001.0001.0001.0002.0002.0002.0003.0004.0006.0007.0009.0006.0008.0015.002.0027.0035.0024.003.0059.0074.0105.0132.0093.0117.0231.0289.0412.0516.0363.0454.09.1124.1601.1996.1403.1742.3465.4289.6104.7513.5278.6447 1.2871 1.5604 2.2136 2.6458 1.8523 2.1698 4.3766 5.0214 7.0595 7.7414l.712-.7023c-2.6601-2.6968-5.1674-5.5288-7.011-7.6884-.9214-1.0794-1.6762-1.9898-2.2004-2.63-.262-.3201-.4664-.5726-.6051-.7449-.0694-.0862-.1223-.1523-.1578-.1967-.0178-.0222-.0312-.039-.0401-.0502-.0044-.0056-.0078-.0098-.01-.0126-.0011-.0014-.0019-.0024-.0024-.0031-.0003-.0003-.0005-.0005-.0006-.0007-.0001-.0001-.0001-.0001-.0001-.0002-.0001 0-.0001 0-.3918.3108zm-2.5158-5.2912c.2534 1.9953.9733 3.9036 2.1017 5.5713l.8282-.5603c-1.0406-1.538-1.7043-3.2975-1.9379-5.137zm.6426-5.9173c-.6759 1.8952-.8961 3.9219-.6426 5.9173l.992-.126c-.2336-1.8396-.0307-3.708.5925-5.4554zm3.2491-4.9947c-1.4602 1.3888-2.5731 3.0995-3.2491 4.9947l.9419.3359c.6233-1.7473 1.6495-3.325 2.9964-4.606zm5.1586-3.0024c-1.9315.5853-3.6983 1.6135-5.1586 3.0024l.6892.7246c1.3469-1.2811 2.977-2.2299 4.7594-2.77zm5.963-.36797c-1.9892-.34336-4.0316-.21735-5.963.36797l.29.957c1.7824-.5401 3.6671-.6564 5.5029-.3395zm5.4911 2.34517c-1.6212-1.1986-3.5019-2.0018-5.4911-2.34517l-.1701.98547c1.8357.3168 3.5711 1.058 5.0667 2.1638zm3.8433 4.5568c-.9057-1.7975-2.2222-3.3582-3.8433-4.5568l-.5945.8041c1.4955 1.1057 2.7096 2.5452 3.5448 4.2027zm-6.9733 5.82c0 2.5215-2.0441 4.5657-4.5656 4.5657v1c3.0738 0 5.5656-2.4919 5.5656-5.5657zm-4.5656-4.5657c2.5215 0 4.5656 2.0442 4.5656 4.5657h1c0-3.0738-2.4918-5.5657-5.5656-5.5657zm-4.5657 4.5657c0-2.5215 2.0441-4.5657 4.5657-4.5657v-1c-3.0739 0-5.5657 2.4919-5.5657 5.5657zm4.5657 4.5657c-2.5216 0-4.5657-2.0442-4.5657-4.5657h-1c0 3.0738 2.4918 5.5657 5.5657 5.5657z" fill="#000"/><path clip-rule="evenodd" d="m36.4677 27.3211c.6077-1.4642.9431-3.0699.9431-4.754 0-6.8543-5.5565-12.4109-12.4108-12.4109-6.8544 0-12.4109 5.5566-12.4109 12.4109 0 1.8525.4059 3.6102 1.1336 5.1891-.2744.3046-.4415.7078-.4415 1.15 0 .9493.7695 1.7188 1.7188 1.7188.2101 0 .4114-.0377.5975-.1067.3803.2559.8816.4612 1.4512.4397.6245-.0235 1.0326-.2483 1.4403-.4728.4521-.249.9037-.4977 1.6495-.4716.6756.0237 1.0064.2391 1.3428.4583.3698.2408.7463.4861 1.5949.4861.8802 0 1.3109-.4286 1.7446-.8602.4399-.4377.8829-.8785 1.801-.8785 1.1693 0 1.6817.6868 2.1563 1.323.4093.5488.7906 1.0599 1.5413 1.0599.781 0 1.0916-.5069 1.4135-1.0322.3461-.5648.7052-1.1509 1.6762-1.1509.1537 0 .3074.0386.4548.1001.3054.4771.8401.7933 1.4486.7933.9492 0 1.7187-.7695 1.7187-1.7187 0-.5045-.2173-.9583-.5635-1.2727zm-6.4021-4.754c0 2.7977-2.268 5.0657-5.0656 5.0657-2.7977 0-5.0657-2.268-5.0657-5.0657s2.268-5.0657 5.0657-5.0657c2.7976 0 5.0656 2.268 5.0656 5.0657z" fill="#ffb82e" fill-rule="evenodd"/><path d="m36.4677 27.3211-.4618-.1916-.1349.3251.2605.2366zm-22.745.4351.3714.3347.2206-.2448-.1379-.2992zm1.8748 2.7621.2791-.4149-.2126-.143-.2404.0891zm1.4512.4397-.0188-.4996zm1.4403-.4728-.2412-.438zm1.6495-.4716.0175-.4997zm1.3428.4583-.2729.4189zm3.3395-.3741-.3527-.3544zm3.9573.4445.4007-.299zm2.9548.0277-.4264-.2612zm2.131-1.0508.4211-.2696-.0842-.1315-.1442-.0602zm3.0469-6.9521c0 1.6171-.322 3.1578-.9049 4.5624l.9236.3833c.6325-1.5239.9813-3.1947.9813-4.9457zm-11.9108-11.9109c6.5781 0 11.9108 5.3327 11.9108 11.9109h1c0-7.1305-5.7804-12.91085-12.9108-12.91085zm-11.9109 11.9109c0-6.5782 5.3327-11.9109 11.9109-11.9109v-.99995c-7.1305 0-12.9109 5.78035-12.9109 12.91085zm1.0877 4.9798c-.6981-1.5146-1.0877-3.201-1.0877-4.9798h-1c0 1.9262.4222 3.7552 1.1795 5.3984zm-.8256-.1254c-.3539.3928-.57.9141-.57 1.4847h1c0-.3139.118-.599.3129-.8153zm-.57 1.4847c0 1.2254.9934 2.2188 2.2188 2.2188v-1c-.6731 0-1.2188-.5457-1.2188-1.2188zm2.2188 2.2188c.2703 0 .5304-.0486.7713-.1379l-.3477-.9376c-.1313.0487-.2737.0755-.4236.0755zm2.0299-.6666c-.4365.0164-.835-.1408-1.1533-.355l-.5582.8297c.4423.2976 1.0463.551 1.7492.5245zm1.2179-.4112c-.4039.2224-.7213.3924-1.2179.4112l.0377.9992c.7524-.0283 1.2511-.3078 1.6626-.5344zm1.9082-.5333c-.8907-.0312-1.4453.2784-1.9082.5333l.4824.876c.4413-.243.79-.4309 1.3908-.4099zm1.5983.539c-.3622-.2359-.7862-.5106-1.5983-.539l-.035.9994c.5392.0189.7768.1752 1.0874.3775zm1.3219.4051c-.3736 0-.6199-.0536-.8031-.1215-.1879-.0697-.332-.1618-.5188-.2836l-.5459.8379c.1829.1191.4119.2701.7169.3832.3096.1149.6759.184 1.1509.184zm1.3919-.7146c-.4258.4237-.729.7146-1.3919.7146v1c1.0975 0 1.6556-.5662 2.0973-1.0057zm2.1537-1.0241c-.5476 0-.9754.1337-1.3332.3441-.3435.2019-.6068.4674-.8205.68l.7054.7089c.2262-.2251.4043-.3989.6219-.5268.2032-.1195.4559-.2062.8264-.2062zm2.557 1.524c-.2305-.309-.5176-.6993-.9175-1.0005-.4185-.3151-.944-.5235-1.6395-.5235v1c.4739 0 .7892.135 1.0379.3223.2672.2013.4736.4725.7176.7996zm1.1406.8589c-.4659 0-.7067-.2773-1.1406-.8589l-.8015.5979c.3849.516.9066 1.261 1.9421 1.261zm.9871-.7934c-.1692.2762-.2904.4667-.4412.6013-.1265.1129-.2817.1921-.5459.1921v1c.5168 0 .9074-.1743 1.2119-.4461.2803-.2502.4753-.5758.6279-.8249zm2.1026-1.3897c-.601 0-1.0495.1867-1.397.4833-.3249.2773-.54.6361-.7056.9064l.8527.5224c.1805-.2946.3181-.5112.502-.6682.1613-.1376.3779-.2439.7479-.2439zm.6475.1388c-.1908-.0797-.4109-.1388-.6475-.1388v1c.0708 0 .1581.0181.2621.0615zm-.6138.7309c.3935.6146 1.0836 1.0237 1.8697 1.0237v-1c-.431 0-.8101-.2233-1.0275-.5629zm1.8697 1.0237c1.2253 0 2.2187-.9934 2.2187-2.2187h-1c0 .673-.5456 1.2187-1.2187 1.2187zm2.2187-2.2187c0-.6513-.2812-1.2376-.7273-1.6428l-.6724.7402c.2463.2237.3997.5448.3997.9026zm-12.5312-.461c3.0738 0 5.5656-2.4919 5.5656-5.5657h-1c0 2.5215-2.0441 4.5657-4.5656 4.5657zm-5.5657-5.5657c0 3.0738 2.4918 5.5657 5.5657 5.5657v-1c-2.5216 0-4.5657-2.0442-4.5657-4.5657zm5.5657-5.5657c-3.0739 0-5.5657 2.4919-5.5657 5.5657h1c0-2.5215 2.0441-4.5657 4.5657-4.5657zm5.5656 5.5657c0-3.0738-2.4918-5.5657-5.5656-5.5657v1c2.5215 0 4.5656 2.0442 4.5656 4.5657z" fill="#000"/><g fill="#17213b"><path d="m53.8782 21.4884h4.532l-.7975-3.0343h-7.0412v13.4989l3.3067-.1556v-4.6293h3.2872v-2.8204h-3.2872z"/><path d="m67.6948 21.1772c2.1007 0 3.8124 1.9062 3.8124 3.9485s-1.7117 3.9485-3.8124 3.9485-3.8123-1.9062-3.8123-3.9485 1.7116-3.9485 3.8123-3.9485zm0-3.0343c-3.8902 0-7.119 3.0926-7.119 6.9828s3.2288 6.9829 7.119 6.9829 7.119-3.0927 7.119-6.9829-3.2288-6.9828-7.119-6.9828z"/><path d="m84.7789 21.1772c2.1007 0 3.8124 1.9062 3.8124 3.9485s-1.7117 3.9485-3.8124 3.9485-3.8124-1.9062-3.8124-3.9485 1.7117-3.9485 3.8124-3.9485zm0-3.0343c-3.8902 0-7.119 3.0926-7.119 6.9828s3.2288 6.9829 7.119 6.9829 7.119-3.0927 7.119-6.9829-3.2288-6.9828-7.119-6.9828z"/><path d="m95.3275 31.7974h4.6293c3.7932 0 6.8462-2.8982 6.8462-6.6717s-3.053-6.6716-6.8462-6.6716h-4.6293zm3.3066-10.523h1.0309c2.14 0 3.832 1.809 3.832 3.8513s-1.692 3.8513-3.832 3.8513h-1.0309z"/><path d="m115.653 18.1429-7.441 13.8916h3.559l1.315-2.7852h5.077l1.435 2.7852h3.558l-7.464-13.8916zm0 5.3684 1.771 3.2677h-3.541z"/><path d="m125.268 31.6806 3.423.428 5.583-12.9932-3.132-.9725-2.159 5.3878-3.404-5.3878-3.092 1.2643 4.921 7.6636z"/></g></svg>